<svg xmlns="http://www.w3.org/2000/svg" viewBox="0 0 298.61 140.89"><defs><style>.cls-1{fill:#de2773;}.cls-2{fill:#1e1f24;}</style></defs><g id="Layer_2" data-name="Layer 2"><g id="Layer_1-2" data-name="Layer 1"><path class="cls-1" d="M86.35,79.61a2.85,2.85,0,0,1-2.85-2.85V10h35a2.85,2.85,0,1,1,0,5.7H89.2V76.76A2.84,2.84,0,0,1,86.35,79.61Z"/><path class="cls-1" d="M127.93,5.7H95A2.85,2.85,0,1,1,95,0h32.9a2.85,2.85,0,0,1,0,5.7Z"/><path class="cls-1" d="M126.76,37.11h-32V22.41a2.85,2.85,0,1,1,5.7,0v9h26.26a2.85,2.85,0,1,1,0,5.7Z"/><path class="cls-1" d="M97.65,79.61a2.85,2.85,0,0,1-2.85-2.85V42.87h28a2.85,2.85,0,0,1,0,5.7H100.5V76.76A2.85,2.85,0,0,1,97.65,79.61Z"/><circle class="cls-1" cx="127.38" cy="12.83" r="2.95"/><circle class="cls-1" cx="195.17" cy="22.21" r="3.12"/><path class="cls-1" d="M176,79.61a39.81,39.81,0,1,1,32.52-62.76,2.85,2.85,0,1,1-4.65,3.29,34.11,34.11,0,1,0,6.24,19.67,2.85,2.85,0,1,1,5.7,0A39.85,39.85,0,0,1,176,79.61Z"/><path class="cls-1" d="M176,67.87A28.07,28.07,0,1,1,189.06,15a2.85,2.85,0,0,1-2.66,5,22.37,22.37,0,1,0,11.73,22.63H172.84a2.85,2.85,0,1,1,0-5.7H204v2.85A28.09,28.09,0,0,1,176,67.87Z"/><path class="cls-1" d="M186.2,52.81H172.31a2.85,2.85,0,1,1,0-5.7H186.2a2.85,2.85,0,1,1,0,5.7Z"/><path class="cls-2" d="M4.58,106.88l20.61.19-.93,6.24-13.84-.12-.92,6.24,12.8.11-1,6.25-12.8-.12-1.76,12L0,137.57Z"/><path class="cls-2" d="M42.11,107.22l5.6,0,8.79,30.81L48.87,138l-1.68-6.52-11.94-.11-3.53,6.48-7.46-.07Zm1.27,9-5.17,9.5,7.51.06Z"/><path class="cls-2" d="M68.5,107.46l9.2.09L87.57,129h.09l3.19-21.33,6.77.07L93,138.41l-8.85-.08L74,116.37h-.09l-3.24,21.84-6.77-.06Z"/><path class="cls-2" d="M113.27,113.86l-8.76-.08.88-6,24.3.22-.88,6-8.77-.08-3.69,24.7-6.77-.06Z"/><path class="cls-2" d="M143.57,108.14l5.6,0L158,139l-7.63-.07-1.68-6.52-11.94-.11-3.53,6.48-7.46-.07Zm1.27,9-5.17,9.5,7.51.06Z"/><path class="cls-2" d="M184,116a4.09,4.09,0,0,0-2-1.56,7.07,7.07,0,0,0-4.16-.36,6.15,6.15,0,0,0-1.55.52,4.2,4.2,0,0,0-1.24,1,2.93,2.93,0,0,0-.67,1.47,2.31,2.31,0,0,0,.36,1.72,3.76,3.76,0,0,0,1.42,1.14,13,13,0,0,0,2.16.82c.82.24,1.65.51,2.49.8a19.61,19.61,0,0,1,2.44,1.07,7.37,7.37,0,0,1,2.05,1.56,5.77,5.77,0,0,1,1.26,2.35,8,8,0,0,1,.07,3.41,10.68,10.68,0,0,1-1.62,4.46,11.44,11.44,0,0,1-3.06,3.14,13.26,13.26,0,0,1-4.06,1.83,17.31,17.31,0,0,1-4.62.56,15.43,15.43,0,0,1-5.42-1,11.72,11.72,0,0,1-4.36-3l5.65-5.24a6,6,0,0,0,2.3,2.17,6.76,6.76,0,0,0,3.14.78,7.18,7.18,0,0,0,1.7-.18,6.29,6.29,0,0,0,1.61-.57,4,4,0,0,0,1.24-1,2.92,2.92,0,0,0,.64-1.43,2.18,2.18,0,0,0-.74-2.2,8.66,8.66,0,0,0-2.48-1.39c-1-.39-2.1-.77-3.29-1.16a13.09,13.09,0,0,1-3.24-1.55,6.83,6.83,0,0,1-2.3-2.53,6.74,6.74,0,0,1-.46-4.13,10.49,10.49,0,0,1,1.62-4.33,11.64,11.64,0,0,1,3.09-3.09,13.5,13.5,0,0,1,4.06-1.85,16.51,16.51,0,0,1,9.39.19,9.61,9.61,0,0,1,4,2.51Z"/><path class="cls-2" d="M204.13,126.31l-8.91-17.7,8.41.08,4.8,11.54L217,108.81l8,.07-14.18,17.49L209,139.46l-6.77-.06Z"/><path class="cls-2" d="M252.51,122.67l4.16,0-2.3,15.12a15.81,15.81,0,0,1-2.75,1.2c-1,.33-2.05.62-3.11.86a29,29,0,0,1-3.19.51,26.86,26.86,0,0,1-3,.15,16.42,16.42,0,0,1-6.78-1.37,12.33,12.33,0,0,1-4.63-3.55,13,13,0,0,1-2.45-5.17,16,16,0,0,1-.18-6.19,18.41,18.41,0,0,1,2.14-6.36,18.6,18.6,0,0,1,9.66-8.44,20.29,20.29,0,0,1,13.44,0,10.23,10.23,0,0,1,4.07,3l-3.46,3.14a9,9,0,0,0-3.64-2.58,12.83,12.83,0,0,0-4.36-.75,12.27,12.27,0,0,0-4.93.93,13.63,13.63,0,0,0-4,2.59,14.24,14.24,0,0,0-2.92,3.86,14.76,14.76,0,0,0-1.54,4.73,12.19,12.19,0,0,0,.22,4.85,10.22,10.22,0,0,0,1.94,3.9,9.32,9.32,0,0,0,3.38,2.61,10.89,10.89,0,0,0,4.59,1,20.85,20.85,0,0,0,4.24-.37,13.7,13.7,0,0,0,3.55-1.16l1.29-8.54-6.82-.06.56-3.9Z"/><path class="cls-2" d="M280,140.89a15,15,0,0,1-6.26-1.3,12.67,12.67,0,0,1-4.55-3.44,13.2,13.2,0,0,1-2.56-5.15,16.11,16.11,0,0,1-.24-6.38,18.41,18.41,0,0,1,2.14-6.36,18.93,18.93,0,0,1,4.08-5.08,18.2,18.2,0,0,1,5.59-3.36,17.78,17.78,0,0,1,6.65-1.18,15,15,0,0,1,6.26,1.3,12.64,12.64,0,0,1,4.54,3.44,12.77,12.77,0,0,1,2.54,5.15,16.31,16.31,0,0,1,.22,6.38,19,19,0,0,1-2.11,6.36,18.72,18.72,0,0,1-4.07,5.09,18.32,18.32,0,0,1-5.58,3.35A17.82,17.82,0,0,1,280,140.89Zm.6-3.9a12.28,12.28,0,0,0,4.91-.94,13.65,13.65,0,0,0,4-2.58,14,14,0,0,0,2.92-3.86,15.29,15.29,0,0,0,1.52-4.74,13.43,13.43,0,0,0-.11-4.75,9.52,9.52,0,0,0-1.75-3.9,9,9,0,0,0-3.25-2.66,10.52,10.52,0,0,0-4.63-1,12.63,12.63,0,0,0-4.94.93,13.45,13.45,0,0,0-4,2.59,14.43,14.43,0,0,0-2.93,3.86,14.82,14.82,0,0,0-1.54,4.74,13.43,13.43,0,0,0,.11,4.75,9.28,9.28,0,0,0,5,6.56A10.57,10.57,0,0,0,280.59,137Z"/></g></g></svg>